<svg width="17" height="17" viewBox="0 0 17 17" fill="none" xmlns="http://www.w3.org/2000/svg">
<path d="M8.20362 7.10357C8.15087 7.11252 8.10821 7.11676 8.08109 7.11873C8.06762 7.11971 8.05829 7.12011 8.05381 7.12026L8.05125 7.12033C7.89456 7.12161 7.74527 7.18553 7.63545 7.29729C7.52463 7.41007 7.46299 7.5623 7.46299 7.72031V9.12031H8.64907V8.2322C8.78997 8.1939 8.94793 8.13809 9.10859 8.05634C9.3757 7.92042 9.66039 7.70728 9.87688 7.37679C10.0957 7.04272 10.2212 6.62457 10.2212 6.12032C10.2212 5.4448 9.94855 4.90074 9.51788 4.5355C9.10055 4.18156 8.56632 4.02031 8.05603 4.02031C7.54574 4.02031 7.01152 4.18155 6.59418 4.53549C6.16351 4.90073 5.89081 5.44479 5.89081 6.12031V6.32031H7.0769V6.12031C7.0769 5.79585 7.19723 5.5899 7.35614 5.45513C7.52849 5.30897 7.78041 5.22031 8.05603 5.22031C8.33165 5.22031 8.58357 5.30897 8.75592 5.45514C8.91483 5.58991 9.03516 5.79586 9.03516 6.12032C9.03516 6.41599 8.9642 6.59786 8.88822 6.71384C8.80989 6.83342 8.70148 6.92026 8.57564 6.98429C8.44735 7.04957 8.31194 7.0852 8.20362 7.10357Z" fill="#2DC574"/>
<path d="M8.05603 9.92031C7.50814 9.92031 7.06994 10.3714 7.06994 10.9203C7.06994 11.4693 7.50814 11.9203 8.05603 11.9203C8.60392 11.9203 9.04212 11.4693 9.04212 10.9203C9.04212 10.3714 8.60392 9.92031 8.05603 9.92031Z" fill="#2DC574"/>
<path fill-rule="evenodd" clip-rule="evenodd" d="M8.05603 0.820312C4.03499 0.820312 0.78125 4.13673 0.78125 8.22031C0.78125 12.3039 4.03499 15.6203 8.05603 15.6203C12.0771 15.6203 15.3308 12.3039 15.3308 8.22031C15.3308 4.13673 12.0771 0.820312 8.05603 0.820312ZM1.96734 8.22031C1.96734 4.79282 4.69663 2.02031 8.05603 2.02031C11.4154 2.02031 14.1447 4.79282 14.1447 8.22031C14.1447 11.6478 11.4154 14.4203 8.05603 14.4203C4.69663 14.4203 1.96734 11.6478 1.96734 8.22031Z" fill="#2DC574"/>
</svg>